<?xml version="1.0" encoding="UTF-8"?>
<svg version="1.1" xmlns="http://www.w3.org/2000/svg" viewBox="0 0 512 512">
<g>
	<path style="fill:#1D1E1E;" d="M292.199,151.665c0,28.808-10.024,55.302-26.792,76.145H75.732
		c-16.768-20.843-26.792-47.337-26.792-76.145S58.964,96.363,75.732,75.52h189.674C282.175,96.363,292.199,122.857,292.199,151.665z"/>
	<circle style="fill:#F2F2F2;" cx="153.854" cy="151.664" r="45.694"/>
	<path style="fill:#383431;" d="M0,0.786v270.286c0,0.214,0,0.499,0.071,0.715v0.713C0.929,280.858,7.786,287.5,16.285,288
		c0.358,0.072,0.715,0.072,1.072,0.072h477.286c9,0,16.357-6.857,17.286-15.571c0.072-0.5,0.072-0.93,0.072-1.428V0.786H0z
		 M467.857,227.787H38.572c-13.215-22.857-20.643-48.715-20.643-76.142c0-27.358,7.428-53.287,20.643-76.144h429.286
		C481,98.357,488.5,124.287,488.5,151.645C488.5,179.072,481,204.93,467.857,227.787z"/>
	<path style="fill:#1D1E1E;" d="M219.823,151.665c0,28.808,10.024,55.302,26.792,76.145H436.29
		c16.768-20.843,26.792-47.337,26.792-76.145S453.058,96.363,436.29,75.52H246.615C229.847,96.363,219.823,122.857,219.823,151.665z"/>
	<circle style="fill:#F2F2F2;" cx="358.168" cy="151.664" r="45.694"/>
	<rect x="157.717" y="57.197" style="fill:#383431;" width="196.588" height="217.739"/>
	<rect y="7.002" style="opacity:0.06;fill:#F2F2F2;" width="512" height="36.999"/>
	<rect style="fill:#2B241E;" width="512" height="37.001"/>
	<path style="fill:#7E7871;" d="M256,10.073l-9.786,16.93h19.572L256,10.073z"/>
	<path style="fill:#2B241E;" d="M512,261.501v9.572c0,0.499,0,0.928-0.072,1.428c-0.714,8.928-8.214,15.857-17.286,15.857h-478
		C7.857,288,0.786,281.144,0.071,272.501c0-0.286-0.071-0.5-0.071-0.786v-10.214c0,9.572,7.786,17.357,17.357,17.357h477.286
		C504.214,278.858,512,271.073,512,261.501z"/>
	<path style="fill:#F2F2F2;" d="M335.023,75.52H176.999c-5.367,0-9.719,4.351-9.719,9.719v133.89c0,5.367,4.351,9.718,9.719,9.718
		h158.023c5.367,0,9.719-4.351,9.719-9.718V85.239C344.741,79.871,340.39,75.52,335.023,75.52z"/>
	<g>
		<path style="fill:#F6CD4A;" d="M344.736,85.245v14.554h-177.45V85.245c0-5.377,4.354-9.731,9.714-9.731h158.022
			C340.399,75.515,344.736,79.868,344.736,85.245z"/>
		<g>
			<rect x="185.519" y="114.364" style="fill:#BBBBBA;" width="140.985" height="16.19"/>
			<rect x="185.519" y="149.876" style="fill:#BBBBBA;" width="140.985" height="16.19"/>
			<rect x="185.519" y="185.428" style="fill:#BBBBBA;" width="140.985" height="16.19"/>
		</g>
	</g>
</g>
</svg>
